<?xml version="1.0" encoding="utf-8"?>
<!-- Generator: Adobe Illustrator 19.2.0, SVG Export Plug-In . SVG Version: 6.00 Build 0)  -->
<svg version="1.1" id="Layer_1" xmlns="http://www.w3.org/2000/svg" xmlns:xlink="http://www.w3.org/1999/xlink" x="0px" y="0px"
	 viewBox="0 0 30 30" style="enable-background:new 0 0 30 30;" xml:space="preserve">
<style type="text/css">
	.st0{fill:#4D4D4D;}
</style>
<g>
	<path class="st0" d="M22.9,7.4h-4.3C18.3,6,17.1,5,15.6,5h-1.2c-1.5,0-2.7,1.1-3,2.4H7.1c-0.3,0-0.5,0.2-0.5,0.5
		c0,0.3,0.2,0.5,0.5,0.5h4.3h1h5.3h1h4.2c0.3,0,0.5-0.2,0.5-0.5S23.2,7.4,22.9,7.4z M12.4,7.4c0.3-0.9,1.1-1.5,2-1.5h1.2
		c0.9,0,1.7,0.6,2,1.5H12.4z"/>
	<path class="st0" d="M15.5,22.8v-12c0-0.3-0.2-0.5-0.5-0.5s-0.5,0.2-0.5,0.5v12c0,0.3,0.2,0.5,0.5,0.5S15.5,23.1,15.5,22.8z"/>
	<path class="st0" d="M12.4,23.3L12.4,23.3c0.3,0,0.5-0.3,0.5-0.5l-1-11.9c0-0.3-0.3-0.5-0.5-0.4c-0.3,0-0.5,0.3-0.4,0.5l1,11.9
		C12,23.1,12.2,23.3,12.4,23.3z"/>
	<path class="st0" d="M17.5,23.3c0.2,0,0.4-0.2,0.5-0.4L19,11c0-0.3-0.2-0.5-0.4-0.5c-0.3,0-0.5,0.2-0.5,0.4l-1,11.9
		C17,23,17.2,23.3,17.5,23.3C17.4,23.3,17.4,23.3,17.5,23.3z"/>
	<path class="st0" d="M21.5,9.7c-0.3,0-0.5,0.2-0.5,0.4l-1.3,12.6l0,0c0,0.8-0.7,1.1-0.9,1.2h-7.6c-0.1,0-0.8-0.2-0.8-1.1l0,0
		L9,10.1c0-0.3-0.3-0.4-0.5-0.4C8.2,9.7,8,10,8,10.2L9.5,23c0,0.6,0.4,1.8,1.7,2c0,0,0,0,0.1,0H19c0.1,0,0.1,0,0.1,0
		c0.1,0,1.6-0.5,1.6-2.1L22,10.3C22,10,21.8,9.7,21.5,9.7z"/>
</g>
</svg>
