<?xml version="1.0" encoding="utf-8"?>
<!-- Generator: Adobe Illustrator 19.2.0, SVG Export Plug-In . SVG Version: 6.00 Build 0)  -->
<svg version="1.1" id="Layer_1" xmlns="http://www.w3.org/2000/svg" xmlns:xlink="http://www.w3.org/1999/xlink" x="0px" y="0px"
	 viewBox="0 0 30 30" style="enable-background:new 0 0 30 30;" xml:space="preserve">
<style type="text/css">
	.st0{fill:#A6A6A6;}
</style>
<path class="st0" d="M10.6,25c-0.9,0-1.6-0.3-2.2-0.6c-0.8-0.4-1.5-1-2-1.8c-1.3-2.3-0.7-4.1-0.3-5c0.2-0.3,0.4-0.6,0.6-0.8L17,6.5
	C18,5.5,19.1,5,20.2,5c1.3,0,2.2,0.8,2.4,1.1c0,0,0,0,0.1,0.1c0.7,0.7,1.1,1.6,1.2,2.7c0,0.9-0.3,1.8-1,2.4l-9.9,10
	c-0.1,0.1-0.3,0.2-0.4,0.3c-0.2,0.1-0.5,0.2-0.7,0.3c-0.6,0.1-1.2,0-1.7-0.4c-0.5-0.4-0.8-1-0.8-1.6c0-0.3,0-0.6,0.1-0.9
	c0.1-0.3,0.3-0.7,0.6-0.9l6.6-6.6c0.2-0.2,0.4-0.2,0.6,0c0.2,0.2,0.2,0.4,0,0.6l-6.6,6.6c-0.2,0.2-0.3,0.3-0.3,0.6
	c-0.1,0.2-0.1,0.4-0.1,0.6c0,0.4,0.2,0.7,0.5,1c0.3,0.2,0.7,0.3,1,0.3c0.2,0,0.3-0.1,0.4-0.2c0.1,0,0.2-0.1,0.2-0.2l9.9-10
	c0.5-0.5,0.7-1.1,0.7-1.8c0-0.9-0.3-1.6-0.9-2.1c0,0-0.1-0.1-0.1-0.1c-0.1-0.1-0.8-0.8-1.8-0.8c-0.8,0-1.7,0.4-2.6,1.3L7.3,17.4
	C7.1,17.6,7,17.8,6.9,18c-0.4,0.7-0.8,2.2,0.3,4.1c0.4,0.6,0.9,1.1,1.6,1.5c0.8,0.4,1.9,0.7,3.2,0.2c0.4-0.2,0.8-0.4,1.1-0.7
	l10.7-10.7c0.2-0.2,0.4-0.2,0.6,0c0.2,0.2,0.2,0.4,0,0.6L13.6,23.8c-0.4,0.4-0.9,0.7-1.5,0.9C11.6,24.9,11.1,25,10.6,25z"/>
</svg>
