<?xml version="1.0" encoding="utf-8"?>
<!-- Generator: Adobe Illustrator 19.2.0, SVG Export Plug-In . SVG Version: 6.00 Build 0)  -->
<svg version="1.1" id="Layer_1" xmlns="http://www.w3.org/2000/svg" xmlns:xlink="http://www.w3.org/1999/xlink" x="0px" y="0px"
	 viewBox="0 0 30 30" style="enable-background:new 0 0 30 30;" xml:space="preserve">
<style type="text/css">
	.st0{fill:#737373;}
</style>
<path class="st0" d="M10.9,24.4c-0.9,0-1.6-0.3-2.1-0.5c-0.8-0.4-1.5-1-1.9-1.7c-1.2-2.2-0.7-3.9-0.3-4.8c0.2-0.3,0.4-0.6,0.6-0.8
	L16.7,7c1-1,2.1-1.5,3.1-1.5c1.3,0,2.1,0.8,2.3,1.1c0,0,0,0,0.1,0.1c0.7,0.7,1.1,1.6,1.1,2.6c0,0.9-0.3,1.7-0.9,2.4L13.2,21
	c-0.1,0.1-0.3,0.2-0.4,0.3c-0.2,0.1-0.5,0.2-0.7,0.3c-0.6,0.1-1.2,0-1.7-0.4c-0.5-0.4-0.8-1-0.8-1.6c0-0.3,0-0.6,0.1-0.9
	c0.1-0.3,0.3-0.7,0.5-0.9l6.1-6.1c0.2-0.2,0.6-0.2,0.8,0c0.2,0.2,0.2,0.6,0,0.8L11,18.5c-0.1,0.1-0.2,0.3-0.3,0.5
	c-0.1,0.2-0.1,0.4-0.1,0.5c0,0.3,0.2,0.6,0.4,0.8c0.2,0.2,0.6,0.3,0.9,0.2c0.1,0,0.2-0.1,0.4-0.1c0.1,0,0.1-0.1,0.2-0.2l9.2-9.3
	c0.4-0.4,0.6-1,0.6-1.6c0-0.8-0.3-1.4-0.8-1.9c0,0-0.1-0.1-0.1-0.1c-0.1-0.1-0.7-0.7-1.6-0.7c-0.7,0-1.5,0.4-2.3,1.2L8,17.4
	c-0.2,0.2-0.3,0.3-0.4,0.5c-0.3,0.7-0.8,2,0.2,3.7c0.3,0.6,0.8,1,1.4,1.3c0.7,0.3,1.7,0.6,2.8,0.2c0.4-0.1,0.7-0.4,1-0.6l9.9-9.9
	c0.2-0.2,0.6-0.2,0.8,0c0.2,0.2,0.2,0.6,0,0.8l-9.9,9.9c-0.4,0.4-0.9,0.7-1.4,0.9C11.9,24.3,11.4,24.4,10.9,24.4z"/>
</svg>
