<?xml version="1.0" encoding="utf-8"?>
<!-- Generator: Adobe Illustrator 19.2.0, SVG Export Plug-In . SVG Version: 6.00 Build 0)  -->
<svg version="1.1" id="Layer_1" xmlns="http://www.w3.org/2000/svg" xmlns:xlink="http://www.w3.org/1999/xlink" x="0px" y="0px"
	 viewBox="0 0 15 25" width="15" height="25" style="enable-background:new 0 0 15 25;" xml:space="preserve">
<style type="text/css">
	.st0{fill:#B3B3B3;}
</style>
<g>
	<circle class="st0" cx="7.5" cy="5.6" r="1.7"/>
	<path class="st0" d="M11.8,11.8L8.6,8C8.4,7.8,8.2,7.7,7.9,7.8c-0.1,0-0.1,0-0.2,0H7.3c-0.1,0-0.2,0-0.2,0C6.9,7.7,6.6,7.8,6.4,8
		l-3.2,3.8C3,12,3.1,12.4,3.3,12.6c0.2,0.2,0.6,0.2,0.8-0.1l1.8-2.1l-1.6,4.4c0,0.4,0.3,0.7,0.7,0.7h0.9v4.9c0,0.4,0.3,0.7,0.7,0.7
		s0.7-0.3,0.7-0.7v-4.9h0.7v4.9c0,0.4,0.3,0.7,0.7,0.7c0.4,0,0.7-0.3,0.7-0.7v-4.9h0.9c0.4,0,0.7-0.3,0.7-0.7l-1.6-4.2l1.6,1.9
		c0.2,0.2,0.6,0.3,0.8,0.1C11.9,12.4,12,12,11.8,11.8z"/>
</g>
</svg>
