<?xml version="1.0" encoding="utf-8"?>
<!-- Generator: Adobe Illustrator 19.2.0, SVG Export Plug-In . SVG Version: 6.00 Build 0)  -->
<svg version="1.1" id="Layer_1" xmlns="http://www.w3.org/2000/svg" xmlns:xlink="http://www.w3.org/1999/xlink" x="0px" y="0px"
	 viewBox="0 0 30 30" style="enable-background:new 0 0 30 30;" xml:space="preserve">
<style type="text/css">
	.st0{fill:#4D4D4D;}
</style>
<g>
	<polygon class="st0" points="13.8,18.2 12.9,18.2 12.1,19.8 12.1,19.8 11.3,18.2 10.5,18.2 11.4,20.1 10.4,22 11.3,22 12.1,20.3 
		12.1,20.3 13,22 13.8,22 12.8,20.1 	"/>
	<path class="st0" d="M15.3,21.3c-0.1,0-0.2,0-0.2-0.1c0,0-0.1-0.1-0.1-0.2v-2.9h-0.8v3c0,0.2,0.1,0.4,0.2,0.6
		C14.5,22,14.7,22,15,22c0.7,0,1.3,0,1.6-0.1l0-0.6H15.3z"/>
	<path class="st0" d="M17.8,18.9c0.1,0,0.2-0.1,0.4-0.1c0.5,0,0.9,0,1.2,0l0.1-0.6c-0.4-0.1-0.8-0.2-1.3-0.2c-0.5,0-0.9,0.1-1.1,0.2
		c-0.2,0.1-0.3,0.4-0.3,0.8c0,0.3,0.1,0.5,0.2,0.7c0.1,0.2,0.3,0.3,0.6,0.4l0.8,0.3c0.1,0,0.2,0.1,0.3,0.1c0.1,0.1,0.1,0.1,0.1,0.3
		c0,0.2,0,0.3-0.1,0.3c-0.1,0-0.2,0.1-0.5,0.1c-0.1,0-0.5,0-1.3,0L16.9,22c0.4,0.1,0.9,0.1,1.3,0.1c0.5,0,0.9-0.1,1.1-0.2
		c0.2-0.2,0.3-0.4,0.3-0.9c0-0.3-0.1-0.5-0.2-0.7c-0.1-0.2-0.3-0.3-0.6-0.4l-0.7-0.3c-0.2-0.1-0.3-0.1-0.3-0.2
		c-0.1-0.1-0.1-0.1-0.1-0.3C17.7,19,17.7,18.9,17.8,18.9z"/>
	<path class="st0" d="M22.9,9.9C22.9,9.9,22.9,9.9,22.9,9.9C22.9,9.8,22.9,9.8,22.9,9.9c0-0.1,0-0.1,0-0.1c0,0,0,0,0,0c0,0,0,0,0,0
		c0,0,0,0,0,0c0,0,0,0,0,0c0,0,0,0,0,0c0,0,0,0,0,0c0,0,0,0,0,0l-4.6-4.4c0,0,0,0,0,0c0,0,0,0,0,0c0,0,0,0,0,0c0,0,0,0,0,0
		c0,0,0,0,0,0c0,0,0,0,0,0c0,0,0,0-0.1,0c0,0,0,0,0,0H8.6C7.8,5,7.1,5.6,7.1,6.4v17.1c0,0.8,0.6,1.4,1.4,1.4h12.9
		c0.8,0,1.4-0.6,1.4-1.4L22.9,9.9C22.9,9.9,22.9,9.9,22.9,9.9z M21.2,9.4l-2.2,0c-0.5,0-0.7-0.4-0.7-0.8l0-2L21.2,9.4z M21.9,23.6
		c0,0.3-0.2,0.5-0.5,0.5H8.6c-0.3,0-0.5-0.2-0.5-0.5V6.4C8.1,6.2,8.3,6,8.6,6h8.7l0,2.7c0,0,0,0,0,0c0.1,1,0.7,1.7,1.7,1.7l2.9,0
		V23.6z"/>
</g>
</svg>
