<?xml version="1.0" encoding="utf-8"?>
<!-- Generator: Adobe Illustrator 19.2.0, SVG Export Plug-In . SVG Version: 6.00 Build 0)  -->
<svg version="1.1" id="Layer_1" xmlns="http://www.w3.org/2000/svg" xmlns:xlink="http://www.w3.org/1999/xlink" x="0px" y="0px"
	 viewBox="0 0 25 25" width="25" height="25" style="enable-background:new 0 0 25 25;" xml:space="preserve">
<style type="text/css">
	.st0{fill:none;stroke:#B3B3B3;stroke-linecap:round;stroke-linejoin:round;stroke-miterlimit:10;}
</style>
<path class="st0" d="M16.9,12.5c0,3.1-2.3,6.6-4.6,6.6c-2.3,0-4.2-3.6-4.2-6.5c0-3,2-6.6,4.2-6.6C14.6,5.9,16.9,9.4,16.9,12.5z
	 M12.4,5.9c-0.9,0-1.7,3.7-1.7,6.6c0,2.9,0.8,6.6,1.7,6.6c0.9,0,1.9-3.4,1.9-6.5C14.3,9.4,13.3,5.9,12.4,5.9z M19.1,12.4
	c0-1.3-3.6-2.4-6.6-2.4c-2.9,0-6.6,1.1-6.6,2.4c0,1.3,3.4,2.7,6.4,2.7C15.5,15.1,19.1,13.7,19.1,12.4z M12.5,5.9
	c-3.6,0-6.6,2.9-6.6,6.6s2.9,6.6,6.6,6.6s6.6-2.9,6.6-6.6S16.1,5.9,12.5,5.9z M12.5,12.5"/>
</svg>
