<?xml version="1.0" encoding="utf-8"?>
<!-- Generator: Adobe Illustrator 19.2.0, SVG Export Plug-In . SVG Version: 6.00 Build 0)  -->
<svg version="1.1" id="Layer_1" xmlns="http://www.w3.org/2000/svg" xmlns:xlink="http://www.w3.org/1999/xlink" x="0px" y="0px"
	 viewBox="0 0 25 25" width="25" height="25" style="enable-background:new 0 0 25 25;" xml:space="preserve">
<style type="text/css">
	.st0{fill:none;stroke:#B3B3B3;stroke-linecap:round;stroke-linejoin:round;stroke-miterlimit:10;}
	.st1{fill:none;stroke:#B3B3B3;stroke-width:0.75;stroke-linecap:round;stroke-linejoin:round;stroke-miterlimit:10;}
</style>
<g>
	<path class="st0" d="M6.5,7.7c0.4-0.3,1-0.5,1.6-0.3c0.4,0.1,0.7,0.3,0.8,0.4c1,1.1,2,2.5,1.6,3.5c-0.3,0.7-1.3,0.6-1.6,1.3
		c-0.6,1.6,2.6,4.8,3.6,4.4c0.2-0.1,0.4-0.8,0.8-1.1c1.4-1,3.5,1,3.5,3c0,1.1-1.8,1.6-2.1,1.7c-1.2,0.3-4.1,0.7-7.1-3.6
		C2.9,10.1,6,8,6.5,7.7z"/>
	<path class="st1" d="M18.6,8.4c0,1.9-1.4,4.1-2.9,4.1c-1.4,0-2.6-2.3-2.7-4.1c0-1.9,1.2-4.1,2.7-4.1C17.2,4.2,18.6,6.4,18.6,8.4z
		 M15.7,4.2c-0.6,0-1,2.3-1,4.1c0,1.8,0.5,4.1,1,4.1c0.6,0,1.2-2.2,1.2-4.1C17,6.4,16.3,4.2,15.7,4.2z M19.9,8.3
		c0-0.8-2.3-1.5-4.1-1.5c-1.8,0-4.1,0.7-4.1,1.5c0,0.8,2.1,1.7,4,1.7C17.7,10,20,9.1,19.9,8.3z M15.8,4.2c-2.3,0-4.1,1.8-4.1,4.1
		s1.8,4.1,4.1,4.1s4.1-1.8,4.1-4.1S18.1,4.2,15.8,4.2z M15.8,8.4"/>
</g>
</svg>
