<?xml version="1.0" encoding="utf-8"?>
<!-- Generator: Adobe Illustrator 19.2.0, SVG Export Plug-In . SVG Version: 6.00 Build 0)  -->
<svg version="1.1" id="Layer_1" xmlns="http://www.w3.org/2000/svg" xmlns:xlink="http://www.w3.org/1999/xlink" x="0px" y="0px"
	 viewBox="0 0 30 30" style="enable-background:new 0 0 30 30;" xml:space="preserve">
<style type="text/css">
	.st0{fill:#4D4D4D;}
</style>
<path class="st0" d="M24.7,6.8c-0.2-0.2-0.4-0.3-0.7-0.3l0,0l-8.6,0.1l-2.2-1.9c-0.2-0.2-0.4-0.2-0.7-0.2H6c-0.5,0-1,0.4-1,1v13.8
	c0,0.5,0.4,1,1,1h6.6c0,0.2,0,0.5,0,0.7c0.1,0.5,0.4,0.9,0.7,1.1l-0.1,2.6c0,0,0,0,0,0.1c0,0.3,0.3,0.7,0.8,0.8c0,0,0,0,0.1,0h1.7
	c0.1,0,0.1,0,0.2,0c0.2-0.1,0.7-0.4,0.7-0.9l0,0L16.3,22c0.7-0.6,0.7-1.3,0.7-1.7l0,0h7c0.5,0,1-0.4,1-1V7.5C25,7.3,24.9,7,24.7,6.8
	z M6,19.3V5.5h6.5L15,7.6c-0.1,0-0.2-0.1-0.3-0.1s-0.2,0-0.3,0.1h-1.3c-0.3,0-0.5,0.2-0.5,0.5c0,0.3,0.2,0.5,0.5,0.5l0,0h1.2v1.8
	h-1.2c-0.3,0-0.5,0.2-0.5,0.5s0.2,0.5,0.5,0.5l0,0h1.2v1.8h-1.2c-0.3,0-0.5,0.2-0.5,0.5s0.2,0.5,0.5,0.5l0,0h1.2v1.7h-1.2
	c-0.3,0-0.5,0.2-0.5,0.5c0,0.3,0.2,0.5,0.5,0.5l0,0h1.2v1.9l0,0c-0.5,0-0.9,0.2-1.2,0.5l0,0C13.1,19.3,6,19.3,6,19.3z M14.3,20.3
	C14.3,20.3,14.2,20.4,14.3,20.3v0.2h-0.2c-0.1,0-0.3,0-0.4,0.1l-0.1,0.1c0-0.1,0-0.3,0-0.4C13.6,20.3,14.3,20.3,14.3,20.3z
	 M14.1,24.5l0.1-2.6l0,0v-0.1c0-0.1,0-0.2,0-0.3l0,0v0.8c0,0.3,0.2,0.5,0.5,0.5s0.5-0.2,0.5-0.5v-0.8l0,0c0,0.1,0,0.2,0,0.2l0,0l0,0
	c0,0,0,0,0,0.1l0,0l0.2,2.6L14.1,24.5L14.1,24.5z M15.9,20.5C15.9,20.5,16,20.6,15.9,20.5c0,0.1,0,0.1,0,0.2
	c-0.1-0.1-0.3-0.2-0.4-0.2c-0.1,0-0.2,0-0.3,0.1v-0.3c0,0,0,0,0-0.1h0.7C15.9,20.4,15.9,20.4,15.9,20.5z M24,19.3h-7.6
	c-0.1-0.1-0.3-0.2-0.4-0.3c-0.2-0.1-0.4-0.2-0.7-0.2h-0.1v-1.9h1.2c0.3,0,0.5-0.2,0.5-0.5s-0.2-0.5-0.5-0.5l0,0h-1.2v-1.7h1.2
	c0.3,0,0.5-0.2,0.5-0.5s-0.2-0.5-0.5-0.5l0,0h-1.2v-1.8h1.2c0.3,0,0.5-0.2,0.5-0.5s-0.2-0.5-0.5-0.5l0,0h-1.2V8.7h1.2
	c0.3,0,0.5-0.2,0.5-0.5s-0.2-0.5-0.5-0.5l0,0h-1.3c0,0,0,0-0.1,0l9-0.1V19.3z"/>
</svg>
