<?xml version="1.0" encoding="utf-8"?>
<!-- Generator: Adobe Illustrator 19.2.0, SVG Export Plug-In . SVG Version: 6.00 Build 0)  -->
<svg version="1.1" id="Layer_1" xmlns="http://www.w3.org/2000/svg" xmlns:xlink="http://www.w3.org/1999/xlink" x="0px" y="0px"
	 viewBox="0 0 30 30" style="enable-background:new 0 0 30 30;" xml:space="preserve">
<style type="text/css">
	.st0{fill:#FFFFFF;}
</style>
<path class="st0" d="M15,4C8.9,4,4,8.9,4,15s4.9,11,11,11s11-4.9,11-11S21.1,4,15,4z M18.1,11.5c0.7,0,1.2,0.6,1.2,1.4
	s-0.5,1.4-1.2,1.4c-0.7,0-1.2-0.6-1.2-1.4S17.4,11.5,18.1,11.5z M12,11.5c0.7,0,1.2,0.6,1.2,1.4s-0.5,1.4-1.2,1.4
	c-0.7,0-1.2-0.6-1.2-1.4S11.3,11.5,12,11.5z M15,23.2c-3.9,0-6.9-3.3-7.1-6.1c-0.1-1.5,1,0.4,7.2,0.4s6.9-1.9,6.9-0.4
	C22.1,20.1,18.9,23.2,15,23.2z"/>
</svg>
