<?xml version="1.0" encoding="utf-8"?>
<!-- Generator: Adobe Illustrator 19.2.0, SVG Export Plug-In . SVG Version: 6.00 Build 0)  -->
<svg version="1.1" id="Layer_1" xmlns="http://www.w3.org/2000/svg" xmlns:xlink="http://www.w3.org/1999/xlink" x="0px" y="0px"
	 viewBox="0 0 25 25" width="25" height="25" style="enable-background:new 0 0 25 25;" xml:space="preserve">
<style type="text/css">
	.st0{fill:none;stroke:#B3B3B3;stroke-linecap:round;stroke-linejoin:round;stroke-miterlimit:10;}
</style>
<path class="st0" d="M8,6.2c0.4-0.3,1-0.5,1.6-0.3c0.4,0.1,0.7,0.3,0.8,0.4c1,1.1,2,2.5,1.6,3.5c-0.3,0.7-1.3,0.6-1.6,1.3
	c-0.6,1.6,2.6,4.8,3.6,4.4c0.2-0.1,0.4-0.8,0.8-1.1c1.4-1,3.5,1,3.5,3c0,1.1-1.8,1.6-2.1,1.7c-1.2,0.3-4.1,0.7-7.1-3.6
	C4.5,8.6,7.6,6.5,8,6.2z"/>
</svg>
