<?xml version="1.0" encoding="utf-8"?>
<!-- Generator: Adobe Illustrator 19.2.0, SVG Export Plug-In . SVG Version: 6.00 Build 0)  -->
<svg version="1.1" id="Layer_1" xmlns="http://www.w3.org/2000/svg" xmlns:xlink="http://www.w3.org/1999/xlink" x="0px" y="0px"
	 viewBox="0 0 15 25" width="15" height="25" style="enable-background:new 0 0 15 25;" xml:space="preserve">
<style type="text/css">
	.st0{fill:#B3B3B3;}
</style>
<g>
	<circle class="st0" cx="7.5" cy="5.7" r="1.7"/>
	<path class="st0" d="M11.8,12.4L9.4,8.1C9.2,7.9,9,7.8,8.7,7.9c-0.1,0-0.1,0-0.2,0h-2c-0.1,0-0.1,0-0.2,0C6,7.8,5.8,7.9,5.6,8.1
		l-2.4,4.2C3,12.6,3.1,13,3.4,13.1c0.3,0.2,0.6,0.1,0.8-0.2l1.6-2.8v2v1.6v6.7c0,0.4,0.3,0.7,0.7,0.7c0.4,0,0.7-0.3,0.7-0.7v-6h0.7
		v6c0,0.4,0.3,0.7,0.7,0.7c0.4,0,0.7-0.3,0.7-0.7v-6.7v-1.6v-2l1.6,2.8c0.2,0.3,0.5,0.4,0.8,0.2h0C11.9,13,12,12.6,11.8,12.4z"/>
</g>
</svg>
