<?xml version="1.0" encoding="utf-8"?>
<!-- Generator: Adobe Illustrator 19.2.0, SVG Export Plug-In . SVG Version: 6.00 Build 0)  -->
<svg version="1.1" id="Layer_1" xmlns="http://www.w3.org/2000/svg" xmlns:xlink="http://www.w3.org/1999/xlink" x="0px" y="0px"
	 viewBox="0 0 30 30" style="enable-background:new 0 0 30 30;" xml:space="preserve">
<style type="text/css">
	.st0{fill:#4D4D4D;}
</style>
<g>
	<path class="st0" d="M23.2,7.4H6.8C5.8,7.4,5,8.2,5,9.2v11.6c0,1,0.8,1.8,1.8,1.8h16.4c1,0,1.8-0.8,1.8-1.8V9.2
		C25,8.2,24.2,7.4,23.2,7.4z M24.1,20.8c0,0.5-0.4,0.9-0.9,0.9H6.8c-0.5,0-0.9-0.4-0.9-0.9V9.2c0-0.5,0.4-0.9,0.9-0.9h16.4
		c0.5,0,0.9,0.4,0.9,0.9V20.8z"/>
	<path class="st0" d="M21.3,12.1c-0.1-0.1-0.2-0.2-0.4-0.2c-0.1,0-0.3,0.1-0.4,0.2l-4.9,6l-3.2-3C12.3,15,12.2,15,12.1,15
		s-0.2,0.1-0.3,0.2l-3.9,4.4c-0.2,0.2-0.2,0.5,0,0.7c0.1,0.1,0.2,0.1,0.3,0.1c0.1,0,0.3-0.1,0.3-0.2l3.6-4l3.2,3
		c0.1,0.1,0.2,0.1,0.3,0.1s0.2-0.1,0.3-0.2l4.8-5.9l1.2,1.7c0.1,0.2,0.4,0.3,0.6,0.1c0.2-0.1,0.3-0.4,0.1-0.6L21.3,12.1z"/>
	<path class="st0" d="M10.9,14.1c1.1,0,2-0.9,2-2s-0.9-2-2-2s-2,0.9-2,2S9.9,14.1,10.9,14.1z M10.9,11.2c0.6,0,1,0.5,1,1
		c0,0.6-0.5,1-1,1c-0.6,0-1-0.5-1-1C9.9,11.6,10.4,11.2,10.9,11.2z"/>
</g>
</svg>
