<?xml version="1.0" encoding="utf-8"?>
<!-- Generator: Adobe Illustrator 19.2.0, SVG Export Plug-In . SVG Version: 6.00 Build 0)  -->
<svg version="1.1" id="Layer_1" xmlns="http://www.w3.org/2000/svg" xmlns:xlink="http://www.w3.org/1999/xlink" x="0px" y="0px"
	 viewBox="0 0 25 25" width="25" height="25" style="enable-background:new 0 0 25 25;" xml:space="preserve">
<style type="text/css">
	.st0{fill:none;stroke:#CECECE;stroke-miterlimit:10;}
	.st1{fill:#CECECE;}
	.st2{fill:none;stroke:#CECECE;stroke-linecap:round;stroke-miterlimit:10;}
</style>
<path class="st0" d="M19.6,12.5c0,0.4-3.8,3.7-7.1,3.7s-7.1-3.4-7.1-3.7c0-0.4,3.9-3.6,7.1-3.6C15.7,8.8,19.6,12.1,19.6,12.5z"/>
<path class="st1" d="M12.5,9.8c0.1,0.2,0.1,0.4,0.1,0.6c0,1.1-0.9,2-2,2c-0.3,0-0.6-0.1-0.8-0.2c0,0.1,0,0.2,0,0.3
	c0,1.5,1.2,2.7,2.7,2.7s2.7-1.2,2.7-2.7C15.2,10.9,13.8,9.8,12.5,9.8z"/>
<line class="st2" x1="19.8" y1="8.3" x2="5.2" y2="16.7"/>
</svg>
