<?xml version="1.0" encoding="utf-8"?>
<!-- Generator: Adobe Illustrator 19.2.0, SVG Export Plug-In . SVG Version: 6.00 Build 0)  -->
<svg version="1.1" id="Layer_1" xmlns="http://www.w3.org/2000/svg" xmlns:xlink="http://www.w3.org/1999/xlink" x="0px" y="0px"
	 viewBox="0 0 30 30" style="enable-background:new 0 0 30 30;" xml:space="preserve">
<style type="text/css">
	.st0{fill:#4D4D4D;}
</style>
<g>
	<polygon class="st0" points="10.1,18.9 11.3,18.9 11.3,22.1 12.1,22.1 12.1,18.9 13.3,18.9 13.3,18.2 10.1,18.2 	"/>
	<polygon class="st0" points="16.7,18.2 15.8,18.2 15.1,19.8 15,19.8 14.3,18.2 13.4,18.2 14.3,20.1 13.3,22.1 14.2,22.1 15,20.3 
		15.1,20.3 15.9,22.1 16.8,22.1 15.8,20.1 	"/>
	<polygon class="st0" points="16.8,18.9 18,18.9 18,22.1 18.8,22.1 18.8,18.9 20,18.9 20,18.2 16.8,18.2 	"/>
	<path class="st0" d="M22.9,9.9C22.9,9.9,22.9,9.8,22.9,9.9C22.9,9.8,22.9,9.8,22.9,9.9c0-0.1,0-0.1,0-0.1c0,0,0,0,0,0c0,0,0,0,0,0
		c0,0,0,0,0,0c0,0,0,0,0,0c0,0,0,0,0,0c0,0,0,0,0,0c0,0,0,0,0,0l-4.6-4.4c0,0,0,0,0,0c0,0,0,0,0,0c0,0,0,0,0,0c0,0,0,0,0,0
		c0,0,0,0,0,0c0,0,0,0,0,0c0,0,0,0-0.1,0c0,0,0,0,0,0H8.5C7.7,5,7.1,5.6,7.1,6.4v17.2c0,0.8,0.6,1.4,1.4,1.4h12.9
		c0.8,0,1.4-0.6,1.4-1.4L22.9,9.9C22.9,9.9,22.9,9.9,22.9,9.9z M21.2,9.4l-2.2,0c-0.5,0-0.7-0.4-0.7-0.8l0-2L21.2,9.4z M21.9,23.6
		c0,0.3-0.2,0.5-0.5,0.5H8.5c-0.3,0-0.5-0.2-0.5-0.5V6.4c0-0.3,0.2-0.5,0.5-0.5h8.8l0,2.7c0,0,0,0,0,0c0.1,1,0.7,1.7,1.7,1.7l2.9,0
		V23.6z"/>
</g>
</svg>
