<?xml version="1.0" encoding="utf-8"?>
<!-- Generator: Adobe Illustrator 19.2.0, SVG Export Plug-In . SVG Version: 6.00 Build 0)  -->
<svg version="1.1" id="Layer_1" xmlns="http://www.w3.org/2000/svg" xmlns:xlink="http://www.w3.org/1999/xlink" x="0px" y="0px"
	 viewBox="0 0 30 30" style="enable-background:new 0 0 30 30;" xml:space="preserve">
<style type="text/css">
	.st0{fill:#4D4D4D;}
</style>
<path class="st0" d="M22.9,9.9L22.9,9.9C22.9,9.8,22.9,9.8,22.9,9.9c0-0.1,0-0.1,0-0.1l0,0l0,0l0,0l0,0l0,0l0,0l0,0l-4.6-4.4l0,0
	l0,0l0,0l0,0l0,0l0,0c0,0,0,0-0.1,0l0,0H8.6C7.8,5,7.1,5.6,7.1,6.4v17.1c0,0.8,0.6,1.4,1.4,1.4h12.9c0.8,0,1.4-0.6,1.4-1.4L22.9,9.9
	L22.9,9.9z M21.2,9.4H19c-0.5,0-0.7-0.4-0.7-0.8v-2L21.2,9.4z M21.9,23.6c0,0.3-0.2,0.5-0.5,0.5H8.6c-0.3,0-0.5-0.2-0.5-0.5V6.4
	C8.1,6.2,8.3,6,8.6,6h8.7v2.7l0,0c0.1,1,0.7,1.7,1.7,1.7h2.9V23.6z"/>
</svg>
