<?xml version="1.0" encoding="utf-8"?>
<!-- Generator: Adobe Illustrator 19.2.0, SVG Export Plug-In . SVG Version: 6.00 Build 0)  -->
<svg version="1.1" id="Layer_1" xmlns="http://www.w3.org/2000/svg" xmlns:xlink="http://www.w3.org/1999/xlink" x="0px" y="0px"
	 viewBox="0 0 30 30" style="enable-background:new 0 0 30 30;" xml:space="preserve">
<style type="text/css">
	.st0{fill:#4D4D4D;}
</style>
<g>
	<path class="st0" d="M15,18h-0.8c-0.2,0-0.3,0.1-0.3,0.3l-0.4,1.8c0,0.1,0,0.2-0.1,0.3c0,0.1,0,0.2,0,0.2h-0.1
		c0-0.2-0.1-0.4-0.1-0.5l-0.4-1.8c0-0.2-0.1-0.3-0.3-0.3h-0.8c-0.2,0-0.3,0.1-0.3,0.3l-0.1,3.4H12l0.1-3h0.1l0.6,2.3
		c0,0.2,0.1,0.3,0.3,0.3h0.5c0.2,0,0.3-0.1,0.3-0.3l0.6-2.3h0.1l0.1,3h0.8l-0.1-3.4C15.3,18.1,15.2,18,15,18z"/>
	<path class="st0" d="M17.4,18c-0.4,0-0.9,0-1.4,0v3.7c0.5,0,1,0,1.4,0c0.6,0,1-0.1,1.2-0.4s0.3-0.8,0.3-1.5c0-0.7-0.1-1.2-0.3-1.5
		C18.4,18.1,18,18,17.4,18z M18,20.9c-0.1,0.2-0.3,0.3-0.6,0.3c-0.1,0-0.2,0-0.3,0s-0.2,0-0.3,0v-2.5l0.6,0c0.3,0,0.5,0.1,0.6,0.3
		c0.1,0.2,0.2,0.5,0.2,1C18.1,20.4,18.1,20.7,18,20.9z"/>
	<path class="st0" d="M22.5,10.1C22.5,10.1,22.5,10.1,22.5,10.1C22.5,10.1,22.5,10.1,22.5,10.1c0-0.1,0-0.1,0-0.1c0,0,0,0,0,0
		c0,0,0,0,0,0c0,0,0,0,0,0c0,0,0,0,0,0c0,0,0,0,0,0c0,0,0,0,0,0c0,0,0,0,0,0L18,5.6c0,0,0,0,0,0c0,0,0,0,0,0c0,0,0,0,0,0
		c0,0,0,0,0,0c0,0,0,0,0,0c0,0,0,0,0,0c0,0,0,0-0.1,0c0,0,0,0,0,0H8.9c-0.7,0-1.4,0.6-1.4,1.4v16.4c0,0.7,0.6,1.4,1.4,1.4h12.3
		c0.7,0,1.4-0.6,1.4-1.4L22.5,10.1C22.5,10.1,22.5,10.1,22.5,10.1z M20.9,9.7l-2.1,0c-0.5,0-0.7-0.4-0.7-0.8l0-1.9L20.9,9.7z
		 M21.6,23.2c0,0.2-0.2,0.4-0.4,0.4H8.9c-0.2,0-0.4-0.2-0.4-0.4V6.8c0-0.2,0.2-0.4,0.4-0.4h8.3l0,2.6c0,0,0,0,0,0
		c0.1,1,0.7,1.6,1.6,1.6l2.8,0V23.2z"/>
</g>
</svg>
